<?xml version="1.0" encoding="UTF-8" standalone="no"?>
<svg
   xmlns:x="adobe:ns:meta/"
   xmlns:dc="http://purl.org/dc/elements/1.1/"
   xmlns:cc="http://creativecommons.org/ns#"
   xmlns:rdf="http://www.w3.org/1999/02/22-rdf-syntax-ns#"
   xmlns:svg="http://www.w3.org/2000/svg"
   xmlns="http://www.w3.org/2000/svg"
   id="svg9"
   version="1.1"
   viewBox="0 0 222 48"
   height="48"
   width="222">
  <metadata
     id="metadata2">
  </metadata>
  <defs
     id="defs6">
    <style
       id="style4">
      .cls-1 {
        fill: #fff;
        fill-rule: evenodd;
      }
    </style>
  </defs>
  <path
     style="fill:#ffffff;fill-rule:evenodd"
     transform="translate(-11065,-375.969)"
     d="m 11080.3,375.966 c 3.3,0 4.3,2.317 5.1,4.633 l 9.1,24.919 c 0.114,0.25627 -0.03,0.55367 -0.3,0.625 l -4.9,1.923 c -0.243,0.10217 -0.522,-0.0278 -0.6,-0.28 v -0.01 l -2.1,-6.052 h -12.5 l -2.2,6.111 c -0.08,0.2513 -0.354,0.38366 -0.6,0.289 l -4.9,-1.923 c -0.213,-0.12932 -0.298,-0.39594 -0.2,-0.625 0.2,-0.869 8.6,-23.739 9,-24.92 0.8,-2.289 1.9,-4.675 5.1,-4.675 z m -14.8,41.756 c -0.274,-0.008 -0.501,0.21178 -0.5,0.486 v 5.259 c -0,0.27422 0.226,0.49448 0.5,0.486 h 29.1 c 0.272,0.0156 0.502,-0.20206 0.5,-0.475 v -5.27 c 0,-0.23977 -0.163,-0.44827 -0.4,-0.486 h -29.2 m 14.8,-34.16 -4.2,12.847 h 8.5 z"
     class="cls-1"
     id="Alfa-DeveloperHub" />
  <g
     id="layer1">
    <text
       id="text4524"
       y="37.12392"
       x="49.262249"
       style="font-style:normal;font-weight:normal;font-size:40px;line-height:1.25;font-family:sans-serif;letter-spacing:0px;word-spacing:0px;fill:#000000;fill-opacity:1;stroke:none"
       xml:space="preserve"><tspan
         style="font-style:normal;font-variant:normal;font-weight:bold;font-stretch:normal;font-family:'Ubuntu Mono';-inkscape-font-specification:'Ubuntu Mono Bold';fill:#ffffff"
         y="37.12392"
         x="49.262249"
         id="tspan4522">Alfa API</tspan></text>
  </g>
</svg>
